<svg width="26" height="26" viewBox="0 0 26 26" fill="none" xmlns="http://www.w3.org/2000/svg">
<g clip-path="url(#clip0)">
<path d="M10.8333 25.8556C4.69444 24.7722 0 19.4278 0 13C0 5.85 5.85 0 13 0C20.15 0 26 5.85 26 13C26 19.4278 21.3056 24.7722 15.1667 25.8556L14.4444 25.2778H11.5556L10.8333 25.8556Z" fill="url(#paint0_linear)"/>
<path d="M18.0556 16.6112L18.6333 13.0001H15.1667V10.4723C15.1667 9.46122 15.5278 8.66678 17.1167 8.66678H18.7778V5.34455C17.8389 5.20011 16.8278 5.05566 15.8889 5.05566C12.9278 5.05566 10.8333 6.86122 10.8333 10.1112V13.0001H7.58334V16.6112H10.8333V25.7834C11.5556 25.9279 12.2778 26.0001 13 26.0001C13.7222 26.0001 14.4445 25.9279 15.1667 25.7834V16.6112H18.0556Z" fill="url(#paint1_linear)"/>
</g>
<defs>
<linearGradient id="paint0_linear" x1="13" y1="25.1001" x2="13" y2="0" gradientUnits="userSpaceOnUse">
<stop stop-color="#0062E0"/>
<stop offset="1" stop-color="#19AFFF"/>
</linearGradient>
<linearGradient id="paint1_linear" x1="13.1806" y1="25.3882" x2="13.1806" y2="5.05566" gradientUnits="userSpaceOnUse">
<stop stop-color="white"/>
<stop offset="1" stop-color="white"/>
</linearGradient>
<clipPath id="clip0">
<rect width="26" height="26" fill="white"/>
</clipPath>
</defs>
</svg>
