<svg width="26" height="26" viewBox="0 0 26 26" fill="none" xmlns="http://www.w3.org/2000/svg">
<path d="M13.0063 0.196777C7.66031 0.196777 6.09681 0.202292 5.79289 0.227505C4.69581 0.318702 4.01313 0.491444 3.2694 0.861747C2.69623 1.14637 2.2442 1.47629 1.79808 1.93878C0.985601 2.7822 0.493191 3.81984 0.314939 5.05326C0.228275 5.65205 0.203064 5.77417 0.197943 8.83272C0.195973 9.85223 0.197943 11.194 0.197943 12.9937C0.197943 18.3355 0.203852 19.8975 0.229457 20.2008C0.318091 21.2684 0.48551 21.9401 0.840044 22.6748C1.5176 24.0811 2.81165 25.1369 4.33615 25.5308C4.86401 25.6667 5.44703 25.7416 6.19549 25.777C6.5126 25.7908 9.74477 25.8007 12.9789 25.8007C16.2131 25.8007 19.4472 25.7967 19.7564 25.781C20.6231 25.7402 21.1263 25.6726 21.6827 25.5289C23.2171 25.1329 24.4875 24.0929 25.1789 22.6669C25.5265 21.9499 25.7028 21.2526 25.7825 20.2408C25.7999 20.0202 25.8072 16.5029 25.8072 12.9904C25.8072 9.4772 25.7993 5.96641 25.782 5.74581C25.7012 4.71763 25.5249 4.02626 25.166 3.2955C24.8716 2.69731 24.5446 2.25058 24.0699 1.79381C23.2228 0.984656 22.1868 0.492232 20.9522 0.314171C20.354 0.227702 20.2349 0.202096 17.174 0.196777H13.0063Z" fill="url(#paint0_radial)"/>
<path d="M13.0063 0.196777C7.66031 0.196777 6.09681 0.202292 5.79289 0.227505C4.69581 0.318702 4.01313 0.491444 3.2694 0.861747C2.69623 1.14637 2.2442 1.47629 1.79808 1.93878C0.985601 2.7822 0.493191 3.81984 0.314939 5.05326C0.228275 5.65205 0.203064 5.77417 0.197943 8.83272C0.195973 9.85223 0.197943 11.194 0.197943 12.9937C0.197943 18.3355 0.203852 19.8975 0.229457 20.2008C0.318091 21.2684 0.48551 21.9401 0.840044 22.6748C1.5176 24.0811 2.81165 25.1369 4.33615 25.5308C4.86401 25.6667 5.44703 25.7416 6.19549 25.777C6.5126 25.7908 9.74477 25.8007 12.9789 25.8007C16.2131 25.8007 19.4472 25.7967 19.7564 25.781C20.6231 25.7402 21.1263 25.6726 21.6827 25.5289C23.2171 25.1329 24.4875 24.0929 25.1789 22.6669C25.5265 21.9499 25.7028 21.2526 25.7825 20.2408C25.7999 20.0202 25.8072 16.5029 25.8072 12.9904C25.8072 9.4772 25.7993 5.96641 25.782 5.74581C25.7012 4.71763 25.5249 4.02626 25.166 3.2955C24.8716 2.69731 24.5446 2.25058 24.0699 1.79381C23.2228 0.984656 22.1868 0.492232 20.9522 0.314171C20.354 0.227702 20.2349 0.202096 17.174 0.196777H13.0063Z" fill="url(#paint1_radial)"/>
<path d="M13.0004 3.54541C10.4328 3.54541 10.1105 3.55664 9.10209 3.60253C8.09561 3.64862 7.4086 3.80797 6.80746 4.04177C6.18565 4.28326 5.65818 4.60629 5.13268 5.132C4.60679 5.65752 4.28377 6.185 4.0415 6.80664C3.80711 7.40799 3.64757 8.09521 3.60227 9.10133C3.55717 10.1098 3.54535 10.4323 3.54535 13C3.54535 15.5677 3.55677 15.8889 3.60247 16.8974C3.64876 17.9039 3.8081 18.5909 4.0417 19.1921C4.28337 19.8139 4.60639 20.3414 5.13209 20.8669C5.65739 21.3928 6.18486 21.7167 6.80628 21.9581C7.40781 22.1919 8.09502 22.3513 9.1013 22.3974C10.1098 22.4433 10.4318 22.4545 12.9992 22.4545C15.567 22.4545 15.8883 22.4433 16.8967 22.3974C17.9032 22.3513 18.591 22.1919 19.1925 21.9581C19.8142 21.7167 20.3408 21.3928 20.8661 20.8669C21.392 20.3414 21.7151 19.8139 21.9573 19.1923C22.1897 18.5909 22.3493 17.9037 22.3966 16.8976C22.4419 15.8891 22.4537 15.5677 22.4537 13C22.4537 10.4323 22.4419 10.11 22.3966 9.10153C22.3493 8.09502 22.1897 7.40799 21.9573 6.80683C21.7151 6.185 21.392 5.65752 20.8661 5.132C20.3403 4.60609 19.8144 4.28306 19.192 4.04177C18.5892 3.80797 17.9018 3.64862 16.8954 3.60253C15.8869 3.55664 15.5659 3.54541 12.9974 3.54541H13.0004ZM12.1523 5.2492C12.404 5.2488 12.6849 5.2492 13.0004 5.2492C15.5247 5.2492 15.8239 5.25826 16.8207 5.30356C17.7425 5.34571 18.2428 5.49974 18.576 5.62915C19.0172 5.80052 19.3318 6.00536 19.6625 6.33627C19.9934 6.66718 20.1982 6.98233 20.37 7.42355C20.4994 7.75642 20.6536 8.25673 20.6956 9.17855C20.7409 10.1752 20.7507 10.4746 20.7507 12.9978C20.7507 15.521 20.7409 15.8204 20.6956 16.817C20.6534 17.7388 20.4994 18.2392 20.37 18.572C20.1986 19.0132 19.9934 19.3274 19.6625 19.6581C19.3316 19.989 19.0174 20.1939 18.576 20.3652C18.2432 20.4952 17.7425 20.6489 16.8207 20.691C15.8241 20.7363 15.5247 20.7462 13.0004 20.7462C10.4759 20.7462 10.1767 20.7363 9.18009 20.691C8.2583 20.6485 7.75801 20.4945 7.42455 20.365C6.98335 20.1937 6.66821 19.9888 6.33731 19.6579C6.00641 19.327 5.80157 19.0127 5.62982 18.5712C5.50041 18.2384 5.34619 17.7381 5.30424 16.8162C5.25893 15.8196 5.24987 15.5202 5.24987 12.9954C5.24987 10.4707 5.25893 10.1728 5.30424 9.17618C5.34639 8.25436 5.50041 7.75406 5.62982 7.42079C5.80118 6.97958 6.00641 6.66442 6.33731 6.33352C6.66821 6.00261 6.98335 5.79776 7.42455 5.626C7.75781 5.496 8.2583 5.34236 9.18009 5.30002C10.0522 5.26062 10.3902 5.2488 12.1523 5.24683V5.2492ZM18.047 6.81905C17.4207 6.81905 16.9125 7.32664 16.9125 7.9532C16.9125 8.57956 17.4207 9.08774 18.047 9.08774C18.6733 9.08774 19.1815 8.57956 19.1815 7.9532C19.1815 7.32683 18.6733 6.81865 18.047 6.81865V6.81905ZM13.0004 8.14465C10.3191 8.14465 8.14524 10.3186 8.14524 13C8.14524 15.6813 10.3191 17.8543 13.0004 17.8543C15.6817 17.8543 17.8548 15.6813 17.8548 13C17.8548 10.3186 15.6815 8.14465 13.0002 8.14465H13.0004ZM13.0004 9.84844C14.7408 9.84844 16.1518 11.2593 16.1518 13C16.1518 14.7404 14.7408 16.1515 13.0004 16.1515C11.2598 16.1515 9.84898 14.7404 9.84898 13C9.84898 11.2593 11.2598 9.84844 13.0004 9.84844Z" fill="white"/>
<defs>
<radialGradient id="paint0_radial" cx="0" cy="0" r="1" gradientUnits="userSpaceOnUse" gradientTransform="translate(6.99978 27.7727) rotate(-90) scale(25.3754 23.6068)">
<stop stop-color="#FFDD55"/>
<stop offset="0.1" stop-color="#FFDD55"/>
<stop offset="0.5" stop-color="#FF543E"/>
<stop offset="1" stop-color="#C837AB"/>
</radialGradient>
<radialGradient id="paint1_radial" cx="0" cy="0" r="1" gradientUnits="userSpaceOnUse" gradientTransform="translate(-4.09276 2.04124) rotate(78.678) scale(11.343 46.7668)">
<stop stop-color="#3771C8"/>
<stop offset="0.128" stop-color="#3771C8"/>
<stop offset="1" stop-color="#6600FF" stop-opacity="0"/>
</radialGradient>
</defs>
</svg>
