<svg width="26" height="26" viewBox="0 0 26 26" fill="none" xmlns="http://www.w3.org/2000/svg">
<g clip-path="url(#clip0)">
<g filter="url(#filter0_f)">
<path d="M8.09196 20.5048L8.42363 20.7009C9.81658 21.5261 11.4136 21.9624 13.0423 21.9632H13.0458C18.0475 21.9632 22.1182 17.9014 22.1202 12.9088C22.1211 10.4895 21.1781 8.21449 19.4648 6.50317C17.7514 4.79185 15.4732 3.84894 13.0493 3.84792C8.0437 3.84792 3.97303 7.90938 3.97119 12.9015C3.97044 14.6122 4.45009 16.2784 5.35841 17.7201L5.57434 18.0626L4.65744 21.4036L8.09196 20.5048ZM2.03615 23.9917L3.58512 18.3469C2.62977 16.695 2.12714 14.8208 2.12776 12.9009C2.13021 6.89442 7.02762 2.00781 13.0458 2.00781C15.9662 2.00923 18.7074 3.14359 20.769 5.20269C22.83 7.26179 23.9649 9.99868 23.9638 12.9097C23.9612 18.9157 19.063 23.8031 13.0458 23.8031C13.0454 23.8031 13.0462 23.8031 13.0458 23.8031H13.0411C11.214 23.8024 9.41865 23.345 7.82388 22.4769L2.03615 23.9917Z" fill="#B3B3B3"/>
</g>
<path d="M1.92398 23.8804L3.47295 18.2356C2.5176 16.5837 2.01498 14.7095 2.01559 12.7896C2.01804 6.78309 6.91545 1.89648 12.9336 1.89648C15.8541 1.89791 18.5952 3.03226 20.6568 5.09136C22.7178 7.15046 23.8527 9.88735 23.8517 12.7983C23.849 18.8044 18.9508 23.6918 12.9336 23.6918C12.9332 23.6918 12.9341 23.6918 12.9336 23.6918H12.9289C11.1019 23.6911 9.30648 23.2336 7.71171 22.3656L1.92398 23.8804Z" fill="white"/>
<path d="M12.9371 3.73633C7.93156 3.73633 3.86086 7.79776 3.85902 12.7899C3.85828 14.5006 4.33795 16.1668 5.24627 17.6085L5.46221 17.951L4.54525 21.292L7.97982 20.3932L8.31147 20.5893C9.70441 21.4145 11.3014 21.8508 12.9302 21.8516H12.9336C17.9353 21.8516 22.006 17.7898 22.008 12.7972C22.0089 10.3779 21.066 8.10288 19.3526 6.39156C17.6393 4.68023 15.3611 3.73735 12.9371 3.73633Z" fill="url(#paint0_linear)"/>
<path fill-rule="evenodd" clip-rule="evenodd" d="M10.205 8.23556C10.0005 7.78226 9.7854 7.77308 9.59115 7.76512C9.43206 7.75839 9.25007 7.75879 9.06828 7.75879C8.88629 7.75879 8.59081 7.82696 8.34093 8.09943C8.09084 8.37189 7.38599 9.0305 7.38599 10.3702C7.38599 11.7098 8.36363 13.0042 8.49981 13.186C8.6362 13.3677 10.387 16.2046 13.16 17.2959C15.4643 18.2029 15.9332 18.0225 16.4336 17.9771C16.9338 17.9318 18.0476 17.3185 18.2748 16.6828C18.5022 16.047 18.5022 15.5023 18.4341 15.3884C18.3658 15.2747 18.184 15.2068 17.911 15.0706C17.6382 14.9345 16.297 14.2757 16.0469 14.1849C15.7968 14.0941 15.615 14.0488 15.4331 14.3212C15.2513 14.5937 14.7288 15.2068 14.5695 15.3884C14.4104 15.5703 14.2513 15.5929 13.9784 15.4568C13.7056 15.3203 12.8269 15.0331 11.7846 14.1055C10.9737 13.3838 10.4263 12.4925 10.267 12.2201C10.1079 11.9476 10.25 11.8003 10.3868 11.6645C10.5093 11.5425 10.6596 11.3466 10.7962 11.1876C10.9322 11.0286 10.9778 10.9151 11.0685 10.7337C11.1595 10.5518 11.1141 10.3928 11.0458 10.2567C10.9778 10.1206 10.4475 8.77396 10.205 8.23556Z" fill="white"/>
</g>
<defs>
<filter id="filter0_f" x="-24.6526" y="-24.6809" width="75.3052" height="75.3614" filterUnits="userSpaceOnUse" color-interpolation-filters="sRGB">
<feFlood flood-opacity="0" result="BackgroundImageFix"/>
<feBlend mode="normal" in="SourceGraphic" in2="BackgroundImageFix" result="shape"/>
<feGaussianBlur stdDeviation="13.3444" result="effect1_foregroundBlur"/>
</filter>
<linearGradient id="paint0_linear" x1="12.7488" y1="4.82344" x2="12.8405" y2="20.304" gradientUnits="userSpaceOnUse">
<stop stop-color="#57D163"/>
<stop offset="1" stop-color="#23B33A"/>
</linearGradient>
<clipPath id="clip0">
<rect width="26" height="26" rx="13" fill="white"/>
</clipPath>
</defs>
</svg>
